<?xml version="1.0" standalone="no"?>
<!DOCTYPE svg PUBLIC "-//W3C//DTD SVG 20010904//EN"
 "http://www.w3.org/TR/2001/REC-SVG-20010904/DTD/svg10.dtd">
<svg version="1.0" xmlns="http://www.w3.org/2000/svg"
 width="50px" height="50px" viewBox="0 0 1000.000000 1080.000000"
 preserveAspectRatio="xMidYMid meet">
<metadata>
Created by potrace 1.16, written by Peter Selinger 2001-2019
</metadata>
<g transform="translate(0.000000,1080.000000) scale(0.100000,-0.100000)"
fill="#000000" stroke="none">
<path d="M5332 9967 l-92 -92 133 -133 133 -133 24 26 24 26 596 -596 595
-595 105 0 106 0 249 500 c185 371 254 500 265 496 8 -2 23 -7 32 -11 14 -5
29 17 83 125 36 73 65 133 63 135 -9 8 -231 116 -233 113 -1 -2 -32 -62 -68
-134 l-66 -132 29 -12 c17 -7 30 -14 30 -16 0 -5 -481 -968 -487 -974 -2 -2
-273 266 -603 595 l-599 599 21 23 22 24 -129 129 c-71 72 -132 130 -135 130
-3 0 -47 -42 -98 -93z"/>
<path d="M1728 7929 c-211 -28 -401 -197 -448 -401 -6 -28 -10 -844 -10 -2264
0 -2004 2 -2226 16 -2275 54 -183 199 -325 384 -374 48 -13 423 -15 2795 -15
2445 0 2747 2 2800 16 96 24 164 64 242 140 79 77 130 169 152 272 8 38 11
672 11 2240 0 2424 5 2248 -67 2384 -63 120 -181 217 -323 265 -53 17 -164 18
-2770 19 -1493 1 -2745 -2 -2782 -7z m5343 -552 c18 -12 39 -34 46 -47 10 -20
13 -235 13 -977 l0 -951 -37 -6 c-44 -7 -255 -31 -398 -46 -817 -84 -1935
-104 -2765 -49 -707 46 -1399 131 -2060 252 l-65 12 -3 860 c-3 954 -5 912 62
954 30 19 84 19 2602 20 l2571 1 34 -23z"/>
<path d="M7958 7387 c-23 -18 -32 -61 -19 -86 22 -40 63 -43 552 -39 443 3
468 4 488 22 27 24 27 70 1 96 -19 19 -33 20 -512 20 -385 -1 -497 -3 -510
-13z"/>
<path d="M7955 7045 c-14 -13 -25 -33 -25 -45 0 -11 11 -32 25 -45 l24 -25
491 0 c477 0 491 1 510 20 11 11 20 33 20 50 0 17 -9 39 -20 50 -19 19 -33 20
-510 20 l-491 0 -24 -25z"/>
<path d="M7973 6726 c-34 -16 -48 -44 -37 -78 15 -48 10 -47 532 -48 479 0
493 1 512 20 26 26 26 72 -1 96 -20 18 -45 19 -498 21 -389 2 -482 0 -508 -11z"/>
<path d="M7951 6374 c-12 -15 -21 -35 -21 -45 0 -21 33 -59 53 -59 6 0 230 0
496 0 435 0 487 2 503 17 22 20 23 61 2 91 l-15 22 -499 0 -499 0 -20 -26z"/>
<path d="M7955 6045 c-14 -13 -25 -33 -25 -45 0 -11 11 -32 25 -45 l24 -25
491 0 c477 0 491 1 510 20 11 11 20 33 20 50 0 17 -9 39 -20 50 -19 19 -33 20
-510 20 l-491 0 -24 -25z"/>
<path d="M7968 5724 c-15 -8 -30 -25 -34 -38 -6 -24 10 -65 30 -78 6 -4 235
-8 508 -8 l497 0 15 22 c22 31 20 71 -5 94 -20 18 -45 19 -503 21 -412 2 -485
0 -508 -13z"/>
<path d="M8209 5049 c-15 -15 -20 -29 -16 -52 4 -26 -2 -39 -30 -71 -100 -111
-124 -296 -56 -436 32 -65 112 -149 171 -179 97 -49 226 -62 309 -30 19 7 32
6 49 -6 13 -8 34 -15 48 -15 33 0 69 46 63 79 -4 18 4 37 28 66 157 194 112
478 -96 602 -98 59 -206 76 -309 49 -48 -13 -57 -13 -71 0 -23 20 -66 17 -90
-7z"/>
<path d="M8400 3929 c-124 -21 -244 -112 -298 -226 -24 -52 -27 -69 -27 -168
0 -103 2 -114 32 -177 17 -37 28 -70 22 -73 -15 -10 -10 -62 7 -79 21 -22 58
-30 81 -18 15 8 34 3 83 -21 59 -29 74 -32 160 -32 111 0 173 19 247 75 154
116 206 321 125 494 -25 54 -29 71 -20 85 9 14 8 26 -2 50 -14 36 -50 49 -90
34 -20 -7 -32 -7 -45 3 -59 44 -185 67 -275 53z"/>
<path d="M2070 2065 c0 -13 121 -492 129 -511 9 -21 17 -22 134 -23 69 -1 128
2 130 6 3 5 33 119 67 253 34 135 64 253 66 263 5 16 -12 17 -260 17 -146 0
-266 -2 -266 -5z"/>
<path d="M7406 2048 c4 -13 35 -133 69 -268 l61 -245 131 -3 c119 -2 132 -1
137 15 15 53 126 503 126 512 0 8 -80 11 -266 11 l-265 0 7 -22z"/>
<path d="M0 400 l0 -400 5000 0 5000 0 0 400 0 400 -5000 0 -5000 0 0 -400z
m2192 123 c23 -20 23 -57 1 -74 -15 -11 -16 -11 -5 1 27 31 11 72 -33 83 -19
4 -19 5 -1 6 11 0 28 -6 38 -16z m-69 -8 c-3 -9 -8 -14 -10 -11 -3 3 -2 9 2
15 9 16 15 13 8 -4z m-1760 -114 c22 -61 43 -108 47 -104 4 4 24 56 45 116 21
59 42 107 47 107 11 0 9 -5 -42 -149 -23 -64 -44 -107 -53 -109 -15 -3 -17 0
-67 143 -15 44 -31 88 -36 99 -5 13 -3 17 6 14 8 -2 32 -55 53 -117z m517 89
c0 -23 4 -30 20 -30 11 0 20 -4 20 -10 0 -5 -10 -10 -21 -10 -20 0 -21 -4 -17
-71 3 -55 8 -74 23 -85 23 -17 14 -29 -13 -15 -11 6 -22 25 -26 42 -10 51 -7
209 4 209 6 0 10 -13 10 -30z m515 16 c25 -11 33 -19 29 -30 -7 -19 -5 -19
-40 -1 -36 18 -55 19 -78 2 -27 -20 -10 -42 49 -61 87 -27 108 -75 54 -128
-29 -29 -33 -30 -90 -25 -68 6 -72 8 -64 29 5 13 12 14 40 5 50 -15 100 1 100
33 0 17 -8 28 -24 35 -68 28 -106 52 -109 68 -13 70 53 106 133 73z m105 -16
c0 -25 4 -30 25 -30 16 0 25 -6 25 -15 0 -9 -9 -15 -25 -15 -24 0 -25 -3 -25
-60 0 -55 2 -62 25 -72 14 -6 25 -15 25 -20 0 -18 -31 -20 -55 -4 -24 16 -25
20 -25 131 0 96 3 115 15 115 10 0 15 -10 15 -30z m482 -32 l3 -62 36 32 c20
18 45 32 55 32 14 0 9 -9 -21 -40 l-38 -39 42 -61 c40 -57 41 -60 19 -60 -16
0 -32 13 -53 45 -16 24 -33 45 -37 45 -5 0 -8 -20 -8 -45 0 -38 -3 -45 -20
-45 -19 0 -20 7 -20 130 0 122 1 130 20 130 16 0 19 -8 22 -62z m193 30 c1
-20 -2 -24 -11 -17 -8 7 -14 6 -17 -3 -3 -7 -6 2 -6 20 -1 27 3 33 17 30 11
-2 17 -13 17 -30z m-44 -35 c13 -16 12 -17 -3 -4 -17 13 -22 21 -14 21 2 0 10
-8 17 -17z m-1502 -19 c12 -15 21 -40 21 -55 0 -29 0 -29 -65 -29 -72 0 -83
-12 -44 -51 17 -17 30 -20 65 -16 43 4 59 -5 28 -17 -69 -27 -134 19 -134 95
0 87 82 133 129 73z m191 16 c17 -11 10 -13 -40 -10 -47 2 -75 -28 -75 -80 0
-55 26 -80 82 -80 27 0 42 -4 38 -10 -9 -15 -78 -12 -102 5 -50 35 -50 135 0
170 24 17 74 20 97 5z m265 -13 c20 -16 28 -35 32 -69 5 -42 3 -50 -25 -78
-41 -41 -83 -41 -124 0 -28 28 -30 36 -25 78 9 82 84 119 142 69z m85 7 c0
-14 2 -14 22 0 24 17 38 20 38 9 0 -5 -14 -16 -30 -25 -29 -17 -30 -19 -30
-93 0 -43 -4 -75 -10 -75 -6 0 -10 40 -10 100 0 60 4 100 10 100 6 0 10 -7 10
-16z m537 1 c30 -21 44 -75 32 -120 -25 -88 -143 -88 -168 0 -20 72 20 135 84
135 17 0 40 -7 52 -15z m198 -5 c0 -10 -8 -14 -27 -12 -58 6 -91 -42 -67 -100
11 -28 36 -40 74 -35 12 1 20 -4 20 -13 0 -19 -48 -25 -85 -10 -63 26 -68 148
-6 179 31 15 91 9 91 -9z m5364 -83 c8 -26 17 -47 21 -47 4 0 13 21 21 47 8
25 20 48 26 50 13 5 -22 -113 -38 -131 -12 -14 -18 -5 -45 69 -16 44 -20 65
-12 63 7 -3 19 -26 27 -51z m638 38 c2 -6 -9 -11 -23 -10 -39 0 -42 -23 -5
-36 34 -12 49 -43 31 -64 -13 -16 -38 -19 -64 -9 -27 10 -18 22 15 20 45 -2
47 19 5 39 -37 18 -46 41 -24 63 15 15 60 12 65 -3z m333 -20 c0 -35 16 -47
26 -20 4 8 13 15 22 15 13 0 13 -3 -2 -19 -16 -18 -16 -21 -1 -50 19 -38 8
-40 -22 -3 l-22 27 -1 -27 c0 -16 -4 -28 -10 -28 -6 0 -10 30 -10 70 0 40 4
70 10 70 6 0 10 -16 10 -35z m580 32 c0 -4 -34 -104 -45 -136 -3 -8 -8 -11
-11 -8 -8 7 38 147 48 147 4 0 8 -2 8 -3z m70 -57 c0 -33 4 -60 10 -60 6 0 10
-4 10 -10 0 -5 -13 -10 -30 -10 -16 0 -30 5 -30 10 0 6 5 10 10 10 6 0 10 20
10 45 0 38 -2 43 -17 38 -16 -6 -16 -4 1 15 29 34 36 27 36 -38z m120 41 c-5
-11 -15 -23 -21 -26 -6 -5 -2 -13 11 -22 42 -29 8 -82 -43 -69 -37 9 -34 27 3
20 22 -5 31 -2 36 11 6 16 -3 28 -31 39 -6 2 -5 9 3 17 18 19 15 29 -8 29 -11
0 -20 5 -20 10 0 6 18 10 40 10 37 0 40 -2 30 -19z m107 7 c14 -23 12 -106 -2
-118 -33 -27 -86 8 -70 46 4 11 7 27 6 37 -5 38 47 64 66 35z m121 0 c21 -21
13 -45 -25 -77 l-38 -30 43 -1 c23 0 42 -4 42 -10 0 -5 -22 -10 -50 -10 -62 0
-65 15 -14 63 42 40 39 62 -8 53 -26 -5 -29 -4 -18 9 15 18 51 20 68 3z m114
-5 c35 -32 12 -123 -32 -123 -30 0 -50 28 -50 70 0 62 42 89 82 53z m116 5
c21 -21 13 -45 -25 -77 l-38 -30 43 -1 c23 0 42 -4 42 -10 0 -5 -22 -10 -50
-10 -62 0 -65 15 -14 63 42 40 39 62 -8 53 -26 -5 -29 -4 -18 9 15 18 51 20
68 3z m104 -5 c39 -35 8 -122 -44 -123 -10 0 -18 5 -18 10 0 6 9 10 20 10 10
0 24 10 31 22 10 18 9 20 -6 15 -24 -10 -55 10 -55 36 0 44 38 61 72 30z m117
8 c22 -14 26 -94 6 -114 -38 -38 -85 -9 -85 53 0 56 39 86 79 61z m-2078 -49
c-15 -5 -14 -59 2 -65 6 -2 9 -7 6 -11 -15 -17 -37 8 -41 47 -6 59 0 72 24 50
11 -10 15 -19 9 -21z m359 13 c9 -10 9 -15 1 -15 -15 0 -14 -57 2 -63 6 -2 9
-7 6 -11 -15 -17 -37 8 -41 47 -7 58 5 74 32 42z m-532 -7 c23 -23 13 -38 -24
-38 -41 0 -44 -24 -3 -27 42 -2 44 -3 29 -13 -35 -23 -80 1 -80 44 0 28 18 46
45 46 12 0 26 -5 33 -12z m109 5 c14 -6 10 -9 -17 -13 -29 -4 -35 -9 -35 -30
0 -21 5 -26 33 -28 36 -4 34 -22 -3 -22 -28 0 -55 24 -55 50 0 22 25 50 45 50
7 0 22 -3 32 -7z m177 -9 c31 -30 9 -84 -34 -84 -24 0 -50 26 -50 50 0 24 26
50 50 50 10 0 26 -7 34 -16z m86 6 c0 -4 -7 -10 -15 -14 -9 -3 -15 -19 -15
-41 0 -19 -4 -35 -10 -35 -5 0 -10 22 -10 49 0 45 2 49 25 49 14 0 25 -4 25
-8z m274 -6 c31 -30 9 -84 -34 -84 -24 0 -50 26 -50 50 0 24 26 50 50 50 10 0
26 -7 34 -16z m121 7 c3 -5 -9 -11 -27 -13 -28 -2 -33 -7 -33 -28 0 -21 5 -26
33 -28 36 -4 34 -22 -3 -22 -28 0 -55 24 -55 50 0 37 67 69 85 41z m242 2 c14
-6 10 -9 -17 -13 -29 -4 -35 -9 -35 -30 0 -21 5 -26 33 -28 36 -4 34 -22 -3
-22 -28 0 -55 24 -55 50 0 22 25 50 45 50 7 0 22 -3 32 -7z m107 -9 c31 -30 9
-84 -34 -84 -24 0 -50 26 -50 50 0 24 26 50 50 50 10 0 26 -7 34 -16z m116 4
c0 -9 3 -9 12 0 17 17 45 15 52 -4 10 -25 7 -84 -4 -84 -5 0 -10 18 -10 41 0
33 -3 40 -17 37 -13 -2 -19 -14 -21 -41 -4 -50 -22 -47 -22 4 0 36 -2 40 -22
37 -19 -2 -24 -10 -26 -40 -5 -55 -22 -46 -22 10 l0 49 40 1 c25 1 40 -3 40
-10z m-330 -78 c0 -5 -4 -10 -10 -10 -5 0 -10 5 -10 10 0 6 5 10 10 10 6 0 10
-4 10 -10z"/>
<path d="M2150 500 c0 -5 5 -10 10 -10 6 0 10 5 10 10 0 6 -4 10 -10 10 -5 0
-10 -4 -10 -10z"/>
<path d="M536 418 c-28 -39 -21 -48 39 -48 59 0 67 9 45 51 -15 27 -64 25 -84
-3z"/>
<path d="M986 424 c-50 -50 -21 -144 44 -144 48 0 80 50 66 104 -13 53 -75 75
-110 40z"/>
<path d="M1616 408 c-31 -43 -9 -118 35 -118 28 0 59 36 59 68 0 38 -26 72
-55 72 -13 0 -31 -10 -39 -22z"/>
<path d="M9072 374 c2 -11 11 -20 22 -22 13 -3 17 1 14 14 -2 11 -11 20 -22
22 -13 3 -17 -1 -14 -14z"/>
<path d="M9064 325 c-8 -21 10 -39 30 -32 22 9 20 24 -4 37 -16 9 -22 8 -26
-5z"/>
<path d="M9294 365 c-9 -38 3 -75 26 -75 23 0 35 37 26 75 -4 16 -13 25 -26
25 -13 0 -22 -9 -26 -25z"/>
<path d="M9524 375 c-4 -9 -2 -21 4 -27 15 -15 44 -1 40 19 -4 23 -36 29 -44
8z"/>
<path d="M9634 365 c-9 -38 3 -75 26 -75 23 0 35 37 26 75 -4 16 -13 25 -26
25 -13 0 -22 -9 -26 -25z"/>
<path d="M7385 340 c-4 -6 5 -10 19 -10 14 0 26 5 26 10 0 6 -9 10 -19 10 -11
0 -23 -4 -26 -10z"/>
<path d="M7664 336 c-10 -26 4 -48 28 -44 17 2 23 10 23 28 0 18 -6 26 -23 28
-13 2 -25 -3 -28 -12z"/>
<path d="M8024 336 c-10 -26 4 -48 28 -44 17 2 23 10 23 28 0 18 -6 26 -23 28
-13 2 -25 -3 -28 -12z"/>
<path d="M8494 336 c-10 -26 4 -48 28 -44 17 2 23 10 23 28 0 18 -6 26 -23 28
-13 2 -25 -3 -28 -12z"/>
</g>
</svg>
